HIERARCHY
ROOT pelvis
{
  OFFSET 0 100 0
  CHANNELS 6 Xposition Yposition Zposition Zrotation Xrotation Yrotation
  JOINT pelvis_right_femur
  {
    OFFSET -10.78128 -3.44521 -0.5502486
    CHANNELS 3 Zrotation Xrotation Yrotation
    JOINT right_femur_tibia
    {
      OFFSET -0.8047443 -44.0398 -0.1307829
      CHANNELS 3 Zrotation Xrotation Yrotation
      JOINT right_tibia_foot
      {
        OFFSET 3.006224 -47.83518 -5
        CHANNELS 3 Zrotation Xrotation Yrotation
        End Site
        {
          OFFSET 0 -5 15
        }
      }
    }
  }
  JOINT pelvis_left_femur
  {
    OFFSET 10.78128 -3.44521 -0.5502486
    CHANNELS 3 Zrotation Xrotation Yrotation
    JOINT left_femur_tibia
    {
      OFFSET 0.8047443 -44.0398 -0.1307829
      CHANNELS 3 Zrotation Xrotation Yrotation
      JOINT left_tibia_foot
      {
        OFFSET -4.370144 -48.10324 -4.275266
        CHANNELS 3 Zrotation Xrotation Yrotation
        End Site
        {
          OFFSET 0 -5 15
        }
      }
    }
  }
  JOINT pelvis_spine1
  {
    OFFSET 0 6.468898 -3.129235
    CHANNELS 3 Zrotation Xrotation Yrotation
    JOINT spine1
    {
      OFFSET 0 23.15396 4.99043
      CHANNELS 3 Zrotation Xrotation Yrotation
      JOINT spine2
      {
        OFFSET 0 20.79997 -5.064912
        CHANNELS 3 Zrotation Xrotation Yrotation
        JOINT neck
        {
          OFFSET 0 14.38658 9.616178
          CHANNELS 3 Zrotation Xrotation Yrotation
          End Site
          {
            OFFSET 0 20 0
          }
        }
      }
      JOINT right_manubrium
      {
        OFFSET -5.722621 16.35077 3.967754
        CHANNELS 3 Zrotation Xrotation Yrotation
        JOINT right_clavicle
        {
          OFFSET -13.16364 1.694482 -4.693211
          CHANNELS 3 Zrotation Xrotation Yrotation
          JOINT right_humerus
          {
            OFFSET -28.5034 -0.3100689 -2.792744
            CHANNELS 3 Zrotation Xrotation Yrotation
            JOINT right_radius
            {
              OFFSET -25.15693 0.02248979 -1.271978
              CHANNELS 3 Zrotation Xrotation Yrotation
              End Site
              {
                OFFSET -15 0 0
              }
            }
          }
        }
      }
      JOINT left_manubrium
      {
        OFFSET 5.722621 16.35077 3.967754
        CHANNELS 3 Zrotation Xrotation Yrotation
        JOINT left_clavicle
        {
          OFFSET 13.16364 1.694482 -4.693211
          CHANNELS 3 Zrotation Xrotation Yrotation
          JOINT left_humerus
          {
            OFFSET 29.39168 -1.063119 -2.237045
            CHANNELS 3 Zrotation Xrotation Yrotation
            JOINT left_radius
            {
              OFFSET 24.59957 -0.9528479 0.9047498
              CHANNELS 3 Zrotation Xrotation Yrotation
              End Site
              {
                OFFSET 15 -0 -0
              }
            }
          }
        }
      }
    }
  }
}
MOTION
Frames: 13
Frame Time: 0.0416666666667
-1479.491 115.0496 -95.06594 6.958836 7.471193 142.2062 5.486476 12.22219 0.8933468 -0 18.5513 -0 -9.073815 -6.43819 -1.885253 2.226023 -10.88923 -5.566382 -0 7.885324 -0 2.387403 -1.850202 14.60709 2.154706 -4.534294 6.555753 -0.2314894 16.15955 -5.149173 1.771749 19.60223 2.085985 -0.9295982 -19.48839 5.179839 -3.475296 -32.22071 12.75552 92.5783 10.0566 -10.19243 -0 0 25.23968 -27.29811 17.81463 20.71358 0.3484827 -21.86767 -8.807586 -93.24416 14.73219 36.21869 0 0 -17.47175 -0.4416658 14.50851 15.69669
-1476.614 115.0265 -100.6807 7.018179 7.415514 141.7481 5.486476 12.22219 0.8933468 -0 18.5513 -0 -9.073815 -6.43819 -1.885253 2.226023 -10.88923 -5.566382 -0 7.885324 -0 2.387403 -1.850202 14.60709 2.154706 -4.534294 6.555753 -0.2314894 16.15955 -5.149173 1.771749 19.60223 2.085985 -0.9295982 -19.48839 5.179839 -3.475296 -32.22071 12.75552 92.5783 10.0566 -10.19243 -0 0 25.23968 -27.29811 17.81463 20.71358 0.3484827 -21.86767 -8.807586 -93.24416 14.73219 36.21869 0 0 -17.47175 -0.4416658 14.50851 15.69669
-1473.692 115.0033 -106.2722 7.077063 7.359366 141.2902 5.486476 12.22219 0.8933468 -0 18.5513 -0 -9.073815 -6.43819 -1.885253 2.226023 -10.88923 -5.566382 -0 7.885324 -0 2.387403 -1.850202 14.60709 2.154706 -4.534294 6.555753 -0.2314894 16.15955 -5.149173 1.771749 19.60223 2.085985 -0.9295982 -19.48839 5.179839 -3.475296 -32.22071 12.75552 92.5783 10.0566 -10.19243 -0 0 25.23968 -27.29811 17.81463 20.71358 0.3484827 -21.86767 -8.807586 -93.24416 14.73219 36.21869 0 0 -17.47175 -0.4416658 14.50851 15.69669
-1470.725 114.9802 -111.8402 7.135486 7.302754 140.8323 5.486476 12.22219 0.8933468 -0 18.5513 -0 -9.073815 -6.43819 -1.885253 2.226023 -10.88923 -5.566382 -0 7.885324 -0 2.387403 -1.850202 14.60709 2.154706 -4.534294 6.555753 -0.2314894 16.15955 -5.149173 1.771749 19.60223 2.085985 -0.9295982 -19.48839 5.179839 -3.475296 -32.22071 12.75552 92.5783 10.0566 -10.19243 -0 0 25.23968 -27.29811 17.81463 20.71358 0.3484827 -21.86767 -8.807586 -93.24416 14.73219 36.21869 0 0 -17.47175 -0.4416658 14.50851 15.69669
-1467.714 114.9571 -117.3844 7.193443 7.24568 140.3746 5.486476 12.22219 0.8933468 -0 18.5513 -0 -9.073815 -6.43819 -1.885253 2.226023 -10.88923 -5.566382 -0 7.885324 -0 2.387403 -1.850202 14.60709 2.154706 -4.534294 6.555753 -0.2314894 16.15955 -5.149173 1.771749 19.60223 2.085985 -0.9295982 -19.48839 5.179839 -3.475296 -32.22071 12.75552 92.5783 10.0566 -10.19243 -0 0 25.23968 -27.29811 17.81463 20.71358 0.3484827 -21.86767 -8.807586 -93.24416 14.73219 36.21869 0 0 -17.47175 -0.4416658 14.50851 15.69669
-1464.659 114.934 -122.9044 7.250932 7.188149 139.917 5.486476 12.22219 0.8933468 -0 18.5513 -0 -9.073815 -6.43819 -1.885253 2.226023 -10.88923 -5.566382 -0 7.885324 -0 2.387403 -1.850202 14.60709 2.154706 -4.534294 6.555753 -0.2314894 16.15955 -5.149173 1.771749 19.60223 2.085985 -0.9295982 -19.48839 5.179839 -3.475296 -32.22071 12.75552 92.5783 10.0566 -10.19243 -0 0 25.23968 -27.29811 17.81463 20.71358 0.3484827 -21.86767 -8.807586 -93.24416 14.73219 36.21869 0 0 -17.47175 -0.4416658 14.50851 15.69669
-1461.56 114.9108 -128.3997 7.307949 7.130164 139.4595 5.486476 12.22219 0.8933468 -0 18.5513 -0 -9.073815 -6.43819 -1.885253 2.226023 -10.88923 -5.566382 -0 7.885324 -0 2.387403 -1.850202 14.60709 2.154706 -4.534294 6.555753 -0.2314894 16.15955 -5.149173 1.771749 19.60223 2.085985 -0.9295982 -19.48839 5.179839 -3.475296 -32.22071 12.75552 92.5783 10.0566 -10.19243 -0 0 25.23968 -27.29811 17.81463 20.71358 0.3484827 -21.86767 -8.807586 -93.24416 14.73219 36.21869 0 0 -17.47175 -0.4416658 14.50851 15.69669
-1458.417 114.8877 -133.8702 7.36449 7.071729 139.0021 5.486476 12.22219 0.8933468 -0 18.5513 -0 -9.073815 -6.43819 -1.885253 2.226023 -10.88923 -5.566382 -0 7.885324 -0 2.387403 -1.850202 14.60709 2.154706 -4.534294 6.555753 -0.2314894 16.15955 -5.149173 1.771749 19.60223 2.085985 -0.9295982 -19.48839 5.179839 -3.475296 -32.22071 12.75552 92.5783 10.0566 -10.19243 -0 0 25.23968 -27.29811 17.81463 20.71358 0.3484827 -21.86767 -8.807586 -93.24416 14.73219 36.21869 0 0 -17.47175 -0.4416658 14.50851 15.69669
-1455.231 114.8646 -139.3153 7.420552 7.012849 138.5448 5.486476 12.22219 0.8933468 -0 18.5513 -0 -9.073815 -6.43819 -1.885253 2.226023 -10.88923 -5.566382 -0 7.885324 -0 2.387403 -1.850202 14.60709 2.154706 -4.534294 6.555753 -0.2314894 16.15955 -5.149173 1.771749 19.60223 2.085985 -0.9295982 -19.48839 5.179839 -3.475296 -32.22071 12.75552 92.5783 10.0566 -10.19243 -0 0 25.23968 -27.29811 17.81463 20.71358 0.3484827 -21.86767 -8.807586 -93.24416 14.73219 36.21869 0 0 -17.47175 -0.4416658 14.50851 15.69669
-1452.001 114.8415 -144.7349 7.476131 6.953526 138.0877 5.486476 12.22219 0.8933468 -0 18.5513 -0 -9.073815 -6.43819 -1.885253 2.226023 -10.88923 -5.566382 -0 7.885324 -0 2.387403 -1.850202 14.60709 2.154706 -4.534294 6.555753 -0.2314894 16.15955 -5.149173 1.771749 19.60223 2.085985 -0.9295982 -19.48839 5.179839 -3.475296 -32.22071 12.75552 92.5783 10.0566 -10.19243 -0 0 25.23968 -27.29811 17.81463 20.71358 0.3484827 -21.86767 -8.807586 -93.24416 14.73219 36.21869 0 0 -17.47175 -0.4416658 14.50851 15.69669
-1448.728 114.8184 -150.1284 7.531226 6.893765 137.6306 5.486476 12.22219 0.8933468 -0 18.5513 -0 -9.073815 -6.43819 -1.885253 2.226023 -10.88923 -5.566382 -0 7.885324 -0 2.387403 -1.850202 14.60709 2.154706 -4.534294 6.555753 -0.2314894 16.15955 -5.149173 1.771749 19.60223 2.085985 -0.9295982 -19.48839 5.179839 -3.475296 -32.22071 12.75552 92.5783 10.0566 -10.19243 -0 0 25.23968 -27.29811 17.81463 20.71358 0.3484827 -21.86767 -8.807586 -93.24416 14.73219 36.21869 0 0 -17.47175 -0.4416658 14.50851 15.69669
-1445.412 114.7952 -155.4957 7.585831 6.83357 137.1737 5.486476 12.22219 0.8933468 -0 18.5513 -0 -9.073815 -6.43819 -1.885253 2.226023 -10.88923 -5.566382 -0 7.885324 -0 2.387403 -1.850202 14.60709 2.154706 -4.534294 6.555753 -0.2314894 16.15955 -5.149173 1.771749 19.60223 2.085985 -0.9295982 -19.48839 5.179839 -3.475296 -32.22071 12.75552 92.5783 10.0566 -10.19243 -0 0 25.23968 -27.29811 17.81463 20.71358 0.3484827 -21.86767 -8.807586 -93.24416 14.73219 36.21869 0 0 -17.47175 -0.4416658 14.50851 15.69669
-1442.053 114.7721 -160.8363 7.639944 6.772945 136.7169 5.486476 12.22219 0.8933468 -0 18.5513 -0 -9.073815 -6.43819 -1.885253 2.226023 -10.88923 -5.566382 -0 7.885324 -0 2.387403 -1.850202 14.60709 2.154706 -4.534294 6.555753 -0.2314894 16.15955 -5.149173 1.771749 19.60223 2.085985 -0.9295982 -19.48839 5.179839 -3.475296 -32.22071 12.75552 92.5783 10.0566 -10.19243 -0 0 25.23968 -27.29811 17.81463 20.71358 0.3484827 -21.86767 -8.807586 -93.24416 14.73219 36.21869 0 0 -17.47175 -0.4416658 14.50851 15.69669
